:SAMPLES-PER-SECOND 30
:FULLY-SPECIFIED
:DEGREES
11
root  34.88346911 36.516538 -14.83737014 8.316122055 -5.560863495 3.552634001
lowerback  -7.950839996 -0.7384799719 -0.3220331967
upperback  -3.899379969 -0.5279200077 -3.215679884
thorax  0.3988879919 -0.1188390031 -3.180419922
lowerneck  -8.990119934 -11.71630001 -9.647470474
upperneck  18.10090065 -15.96900082 9.505720139
head  8.677570343 -7.184120655 2.960799694
lclavicle  0 -4.497500157e-015 -2.743230041e-014
lhumerus  -48.75799942 29.42090034 63.72069931
lradius  0.001595117152 -6.507048965e-006 30.30559921
lwrist  4.824992743e-007 -3.790274832e-007 -28.25160027
lhand  -0 -36.87680054 -10.73750019
lfingers  90 7.125020027 -90
lthumb  94.81847051 -25.57306642 101.0499305
rclavicle  0 -4.497500157e-015 -2.743230041e-014
rhumerus  -57.09469986 -34.67029953 -53.3484993
rradius  -5.16745672e-007 2.214343908e-008 43.15129852
rwrist  -0.0001011603963 -0.001600692281 -155.4250031
rhand  -1.767009207e-031 -2.318650007 -7.938169956
rfingers  -90 -7.125020027 -90
rthumb  -86.62369797 -7.761900863 -66.40318798
rfemur  -12.19895744 16.44451332 12.82838535
rtibia  -1.121023417 -0.8883115053 20.79019356
rfoot  0.4026881456 -21.657444 -35.78102493
rtoes  4.11669455 19.58873541 -102.1161566
lfemur  -7.967819214 -16.71082497 -20.39634132
ltibia  2.253616571 -1.09056592 14.9164896
lfoot  0.7359572053 -23.45907593 37.64419174
ltoes  -8.772973146 -18.04440058 -116.483346
12
root  34.88017105 36.51489798 -14.83738066 8.292848587 -5.539628029 3.556790829
lowerback  -7.933559895 -0.7543590665 -0.3424444497
upperback  -3.912039995 -0.546949029 -3.216860056
thorax  0.3755019903 -0.1277170032 -3.171430111
lowerneck  -8.780790329 -11.92459965 -9.873189926
upperneck  17.94020081 -16.26309967 9.663709641
head  8.650679588 -7.336250305 3.015799999
lclavicle  0 -4.497500157e-015 -2.743230041e-014
lhumerus  -48.74890137 29.40929985 63.71549988
lradius  0.001595117152 -6.507048965e-006 30.2989006
lwrist  4.824992743e-007 -3.790274832e-007 -28.38760185
lhand  -4.417273986e-031 -36.92810059 -10.69699955
lfingers  90 7.125020027 -90
lthumb  94.83392766 -25.53141127 101.1011154
rclavicle  0 -4.497500157e-015 -2.743230041e-014
rhumerus  -57.08420181 -34.09960175 -53.61600113
rradius  -5.16745672e-007 2.214343908e-008 44.29150009
rwrist  -0.0001011603963 -0.001600692281 -155.602005
rhand  -1.767134617e-031 -2.416990042 -7.878280163
rfingers  -90 -7.125020027 -90
rthumb  -86.61721341 -7.811462199 -66.49557865
rfemur  -12.17568684 16.47694969 12.84018517
rtibia  -1.125549674 -0.8697087169 20.8019104
rfoot  0.4026404321 -21.62783051 -35.80233383
rtoes  4.115381154 19.589001 -102.1122392
lfemur  -7.886045933 -16.70305443 -20.42928505
ltibia  2.304633379 -1.065425277 14.83922291
lfoot  0.7519013286 -23.48150253 37.66824341
ltoes  -8.711323146 -18.07347582 -116.2844721
13
root  34.87776809 36.51431827 -14.84178858 8.283988953 -5.560616493 3.557061195
lowerback  -7.934029579 -0.7478559613 -0.3485988379
upperback  -3.914269924 -0.5376809835 -3.21736002
thorax  0.3740260005 -0.1229299977 -3.167720079
lowerneck  -8.561779976 -12.1487999 -10.06029987
upperneck  17.76519966 -16.56439972 9.700249672
head  8.604459763 -7.503339767 3.024669886
lclavicle  0 -4.497500157e-015 -2.743230041e-014
lhumerus  -48.74940109 29.47310066 63.70479965
lradius  0.001595117152 -6.507048965e-006 30.30320168
lwrist  4.824992743e-007 -3.790274832e-007 -28.40960121
lhand  -4.420116695e-031 -36.97710037 -10.6882
lfingers  90 7.125020027 -90
lthumb  94.85499689 -25.52104711 101.1526354
rclavicle  0 -4.497500157e-015 -2.743230041e-014
rhumerus  -57.2541008 -33.55780029 -53.83420563
rradius  -5.16745672e-007 2.214343908e-008 45.4654007
rwrist  -0.0001011603963 -0.001600692281 -156.7250061
rhand  -1.767201528e-031 -2.46784997 -7.832709789
rfingers  -90 -7.125020027 -90
rthumb  -86.60806753 -7.850481319 -66.54259248
rfemur  -12.18276978 16.47745514 12.84268856
rtibia  -1.132471442 -0.9031330347 20.81434441
rfoot  0.4040755033 -21.70277405 -35.76195145
rtoes  4.089607868 19.59419483 -102.0353759
lfemur  -7.890693665 -16.7754612 -20.42656898
ltibia  2.29403162 -1.090718746 14.86375237
lfoot  0.7716680765 -23.44126129 37.75859833
ltoes  -8.664161074 -18.09554429 -116.132542
14
root  34.87486652 36.5141831 -14.84710964 8.281336784 -5.591175079 3.540321112
lowerback  -7.942929745 -0.7435769439 -0.3519859016
upperback  -3.911989927 -0.5304409862 -3.233400106
thorax  0.3811318874 -0.1189849973 -3.181999922
lowerneck  -8.290699959 -12.37779999 -10.2784996
upperneck  17.53510094 -16.88570023 9.83065033
head  8.545009613 -7.67621994 3.069469929
lclavicle  0 -4.497500157e-015 -2.743230041e-014
lhumerus  -48.71210098 29.47769928 63.73709869
lradius  0.001595117152 -6.507048965e-006 30.34860229
lwrist  4.824992743e-007 -3.790274832e-007 -28.16340065
lhand  -4.417297195e-031 -36.92850113 -10.7020998
lfingers  90 7.125020027 -90
lthumb  94.83520666 -25.53638232 101.1020268
rclavicle  0 -4.497500157e-015 -2.743230041e-014
rhumerus  -57.32699966 -33.00170135 -53.9665947
rradius  -5.16745672e-007 2.214343908e-008 46.64189911
rwrist  -0.0001011603963 -0.001600692281 -157.7960052
rhand  -1.767294701e-031 -2.5369699 -7.936399937
rfingers  -90 -7.125020027 -90
rthumb  -86.66210853 -7.751509935 -66.61550028
rfemur  -12.18553925 16.47332001 12.86173725
rtibia  -1.133453131 -0.9168868661 20.79852486
rfoot  0.4127719104 -21.73061943 -35.74309921
rtoes  4.110411721 19.5900051 -102.0974174
lfemur  -8.007759094 -16.84647369 -20.34641075
ltibia  2.195783138 -1.136918187 15.02981472
lfoot  0.7664331794 -23.41540718 37.77550125
ltoes  -8.671041421 -18.09233415 -116.1546955
15
root  34.87243652 36.51416208 -14.84979494 8.285651207 -5.576261997 3.549155474
lowerback  -7.929550648 -0.7608000636 -0.3406872153
upperback  -3.89902997 -0.5551490188 -3.241209984
thorax  0.3859640062 -0.1319430023 -3.198390007
lowerneck  -8.062990189 -12.58469963 -10.48040009
upperneck  17.31019974 -17.17760086 9.962280273
head  8.491780281 -7.83288002 3.11383009
lclavicle  0 -4.497500157e-015 -2.743230041e-014
lhumerus  -48.64410019 29.44449997 63.78649902
lradius  0.001595117152 -6.507048965e-006 30.37879944
lwrist  4.824992743e-007 -3.790274832e-007 -27.98200035
lhand  -4.415618017e-031 -36.8995018 -10.71930027
lfingers  90 7.125020027 -90
lthumb  94.82525103 -25.5543446 101.0725427
rclavicle  0 -4.497500157e-015 -2.743230041e-014
rhumerus  -57.4233017 -32.43730164 -54.08569717
rradius  -5.16745672e-007 2.214343908e-008 47.77410126
rwrist  -0.0001011603963 -0.001600692281 -159.3959961
rhand  -1.767463151e-031 -2.657360077 -8.024319649
rfingers  -90 -7.125020027 -90
rthumb  -86.71858655 -7.664238679 -66.73734032
rfemur  -12.19788361 16.49969292 12.87089062
rtibia  -1.150301099 -0.8950059414 20.81697273
rfoot  0.3895348907 -21.67398262 -35.82167816
rtoes  4.091489529 19.59381679 -102.0409869
lfemur  -8.065009117 -16.83917427 -20.3251915
ltibia  2.167301893 -1.142565131 15.08420372
lfoot  0.7527077198 -23.42846298 37.71523666
ltoes  -8.70464505 -18.07660984 -116.2629481
16
root  34.87059225 36.51425519 -14.85361415 8.29134655 -5.580082417 3.561101437
lowerback  -7.909169674 -0.7774909735 -0.3316312134
upperback  -3.89703989 -0.5792940259 -3.236531258
thorax  0.3753930032 -0.1445389986 -3.202939987
lowerneck  -7.852670193 -12.79570007 -10.67469978
upperneck  17.14039993 -17.46899986 10.04189968
head  8.455510139 -7.990890503 3.138580084
lclavicle  0 -4.497500157e-015 -2.743230041e-014
lhumerus  -48.67250061 29.4762001 63.75460052
lradius  0.001595117152 -6.507048965e-006 30.42499924
lwrist  4.824992743e-007 -3.790274832e-007 -28.02829933
lhand  -0 -36.88869858 -10.6729002
lfingers  90 7.125020027 -90
lthumb  94.81034016 -25.50918758 101.0567914
rclavicle  0 -4.497500157e-015 -2.743230041e-014
rhumerus  -57.53990555 -31.89220238 -54.22709656
rradius  -5.16745672e-007 2.214343908e-008 49.16759872
rwrist  -0.0001011603963 -0.001600692281 -160.3170013
rhand  -1.76731903e-031 -2.554709911 -8.057049751
rfingers  -90 -7.125020027 -90
rthumb  -86.71352048 -7.639860634 -66.63920388
rfemur  -12.2422123 16.48335457 12.86447906
rtibia  -1.168521047 -0.8972427845 20.87248993
rfoot  0.3610056043 -21.6822052 -35.82898331
rtoes  4.101608166 19.59178079 -102.0711618
lfemur  -8.094910622 -16.86452293 -20.32223892
ltibia  2.151496172 -1.166935325 15.09623241
lfoot  0.7390838861 -23.37602425 37.71971893
ltoes  -8.757934048 -18.05151712 -116.4348035
17
root  34.86878703 36.51433629 -14.85803559 8.295395851 -5.579712391 3.565042496
lowerback  -7.898749828 -0.7948780656 -0.3545791507
upperback  -3.89508009 -0.6016839743 -3.230489969
thorax  0.3709090054 -0.1556240022 -3.182800055
lowerneck  -7.623559952 -13.01589966 -10.84490013
upperneck  16.9496994 -17.77339935 10.10159969
head  8.406959534 -8.156869888 3.152920008
lclavicle  0 -4.497500157e-015 -2.743230041e-014
lhumerus  -48.66910172 29.46940041 63.77740097
lradius  0.001595117152 -6.507048965e-006 30.44609833
lwrist  4.824992743e-007 -3.790274832e-007 -27.96299934
lhand  -4.417030646e-031 -36.9239006 -10.73480034
lfingers  90 7.125020027 -90
lthumb  94.84002006 -25.56875227 101.1000573
rclavicle  0 -4.497500157e-015 -2.743230041e-014
rhumerus  -57.69409943 -31.34769821 -54.27200317
rradius  -5.16745672e-007 2.214343908e-008 50.52220154
rwrist  -0.0001011603963 -0.001600692281 -161.5919952
rhand  -1.767118542e-031 -2.404609919 -8.008540154
rfingers  -90 -7.125020027 -90
rthumb  -86.66744298 -7.692654605 -66.49058299
rfemur  -12.27391052 16.46250725 12.86742973
rtibia  -1.178947806 -0.89515692 20.91606331
rfoot  0.3489734828 -21.69008636 -35.80405426
rtoes  4.094471924 19.59321724 -102.0498804
lfemur  -8.104309082 -16.87733078 -20.31304359
ltibia  2.145577669 -1.159781337 15.08491516
lfoot  0.7420529127 -23.37979507 37.75849152
ltoes  -8.77677236 -18.04260034 -116.4956118
